PathFileType	4	(X/Y/Z)	SUBJ26_2_walk_RCNL2025.trc
DataRate	CameraRate	NumFrames	NumMarkers	Units	OrigDataRate	OrigDataStartFrame	OrigNumFrames
100	100	6	25	mm	100	43	341
Frame#	Time	R_Shoulder			L_Shoulder			C7			J_Notch			R_Elbow			L_Elbow			R_Wrist			L_Wrist			R_Asis			L_Asis			Sacral			Thoracic			Sternum			R_Thigh_Lateral			R_Knee_Lateral			R_Shank_Lateral			R_Ankle_Lateral			R_Heel			R_Toe			L_Thigh_Lateral			L_Knee_Lateral			L_Shank_Lateral			L_Ankle_Lateral			L_Heel			L_Toe		
		X1	Y1	Z1	X2	Y2	Z2	X3	Y3	Z3	X4	Y4	Z4	X5	Y5	Z5	X6	Y6	Z6	X7	Y7	Z7	X8	Y8	Z8	X9	Y9	Z9	X10	Y10	Z10	X11	Y11	Z11	X12	Y12	Z12	X13	Y13	Z13	X14	Y14	Z14	X15	Y15	Z15	X16	Y16	Z16	X17	Y17	Z17	X18	Y18	Z18	X19	Y19	Z19	X20	Y20	Z20	X21	Y21	Z21	X22	Y22	Z22	X23	Y23	Z23	X24	Y24	Z24	X25	Y25	Z25
43	0.42000000	-1075.219604	1315.795410	78.566040	-1100.599487	1328.977783	-253.995880	-1170.926636	1386.775635	-70.944679	-1029.463135	1283.940674	-97.215607	-1137.079956	1000.163208	178.070435	-1161.668701	1009.909668	-359.655792	-1053.237122	761.223999	175.741692	-1040.840973	792.949646	-376.791168	-1041.281616	920.502808	22.292580	-1108.911133	909.217407	-274.889374	-1273.900024	930.176636	-75.410500	-1254.136841	1043.526367	-87.462563	-990.612671	1026.420166	-105.319969	-1107.966675	587.677795	76.981903	-1075.181885	440.368591	7.149688	-1093.683228	290.021240	44.867554	-1115.111816	56.035126	-29.364021	-1168.955444	42.711395	-88.486076	-994.857422	46.631950	-54.483147	-1140.367188	596.935120	-312.611053	-1104.915894	443.720734	-248.423767	-1227.717651	322.826904	-306.437927	-1364.186523	172.155304	-207.947372	-1414.201050	202.884384	-151.238220	-1295.841675	74.580391	-166.523849
44	0.43000000	-1061.988770	1316.793335	78.285034	-1089.155151	1329.867798	-254.511673	-1158.376221	1387.876465	-70.807465	-1017.376465	1284.761719	-97.560844	-1121.324707	1001.273987	178.816376	-1153.104492	1010.678162	-358.740082	-1035.016724	763.220612	175.264870	-1037.879700	790.791382	-375.614517	-1028.369263	921.130981	22.732401	-1097.569214	911.350952	-274.754639	-1262.039429	931.387695	-74.973305	-1242.113403	1044.668823	-86.748116	-978.927246	1027.490845	-105.523163	-1099.448364	588.561707	77.252945	-1071.968384	440.512177	6.936705	-1092.135742	290.039795	44.986439	-1115.136230	55.954823	-29.289326	-1169.005371	42.835163	-88.356392	-994.826965	46.517982	-54.446102	-1122.054443	598.359131	-312.300049	-1081.090942	446.344910	-248.693130	-1200.333374	321.497986	-306.217438	-1331.618042	166.500748	-207.072372	-1382.739502	194.144363	-149.465744	-1257.828613	72.737602	-167.821930
45	0.44000000	-1048.808838	1317.622437	77.983849	-1077.794678	1330.645508	-255.060043	-1145.878174	1388.751709	-70.634857	-1005.343262	1285.432983	-97.927803	-1105.681641	1002.222839	179.539261	-1144.712769	1011.392212	-357.927917	-1016.793060	765.133453	174.685684	-1035.059326	788.780334	-374.325607	-1016.084229	921.575134	23.159386	-1085.842896	913.486084	-274.347107	-1250.196045	932.336548	-74.876396	-1230.087280	1045.575684	-86.136421	-967.217163	1028.416260	-105.784325	-1090.544800	589.329773	77.597649	-1068.836792	440.616486	6.736386	-1090.526123	290.036530	45.101395	-1115.134033	55.883446	-29.222837	-1169.045898	42.971943	-88.225914	-994.767517	46.396915	-54.418568	-1103.786133	599.739319	-312.085876	-1057.766113	448.903168	-248.819077	-1173.077271	319.851715	-305.938263	-1298.109497	159.968918	-206.181549	-1350.256836	184.301773	-147.706924	-1218.801025	70.555351	-169.191986
46	0.45000000	-1035.683228	1318.257202	77.661850	-1066.494385	1331.277954	-255.627945	-1133.424072	1389.379883	-70.436066	-993.354553	1285.933960	-98.326080	-1090.160034	1002.978088	180.235992	-1136.512573	1012.029907	-357.229187	-998.573303	766.935577	174.025467	-1032.351013	786.893860	-372.924469	-1004.237610	921.856567	23.618069	-1073.724243	915.495850	-273.716644	-1238.358032	932.992310	-75.107933	-1218.057373	1046.220947	-85.639824	-955.460388	1029.160889	-106.102646	-1081.423218	589.930603	77.959526	-1065.826050	440.676056	6.525583	-1088.924316	290.035889	45.179985	-1115.106567	55.827198	-29.176617	-1169.076294	43.118938	-88.110664	-994.681152	46.272892	-54.408363	-1085.581055	601.062744	-311.986481	-1034.977051	451.336578	-248.802353	-1145.994385	317.901428	-305.591339	-1263.691162	152.719864	-205.324692	-1316.714844	173.544220	-146.006622	-1178.913940	68.157280	-170.685272
47	0.46000000	-1022.615845	1318.672974	77.318604	-1055.233154	1331.730957	-256.209503	-1121.007080	1389.747192	-70.227913	-981.401245	1286.243652	-98.765556	-1074.763184	1003.510925	180.902969	-1128.503540	1012.563171	-356.646606	-980.369812	768.597839	173.306702	-1029.722443	785.099487	-371.415741	-992.668884	921.981140	24.124325	-1061.240112	917.251221	-272.928772	-1226.511475	933.340942	-75.631081	-1206.023560	1046.587524	-85.264305	-943.633423	1029.700684	-106.478386	-1072.229248	590.321228	78.283394	-1062.967896	440.693665	6.285643	-1087.398682	290.057343	45.204086	-1115.059326	55.792160	-29.158401	-1169.094482	43.272446	-88.025635	-994.573242	46.150997	-54.419014	-1067.455811	602.311768	-312.005951	-1012.745605	453.593323	-248.640915	-1119.116455	315.664764	-305.162323	-1228.391479	144.919098	-204.542236	-1282.076050	162.070251	-144.397293	-1138.308838	65.662079	-172.350174
48	0.47000000	-1009.610046	1318.847778	76.952629	-1043.993652	1331.974365	-256.804840	-1108.621826	1389.847168	-70.031021	-969.474304	1286.344116	-99.254257	-1059.487061	1003.797791	181.535385	-1120.669067	1012.962036	-356.173950	-962.199768	770.091858	172.551285	-1027.135223	783.362549	-369.811417	-981.247559	921.946411	24.677959	-1048.446045	918.635681	-272.051697	-1214.643311	933.386475	-76.388672	-1193.984863	1046.667480	-85.009506	-931.714294	1030.021606	-106.912621	-1063.076050	590.480225	78.524948	-1060.282349	440.682739	6.007009	-1086.000366	290.113068	45.169098	-1115.000122	55.783913	-29.171652	-1169.096191	43.427956	-87.983238	-994.452332	46.036739	-54.448227	-1049.427246	603.462280	-312.138611	-991.081787	455.626923	-248.332596	-1092.470459	313.168091	-304.637329	-1192.242920	136.735825	-203.867477	-1246.315552	150.087418	-142.903351	-1097.115234	63.182041	-174.224350
